<mxfile host="app.diagrams.net" modified="2023-01-23T11:49:10.995Z" agent="5.0 (Windows NT 10.0; Win64; x64) AppleWebKit/537.36 (KHTML, like Gecko) Chrome/109.0.0.0 Safari/537.36" etag="mwxIOjAFbJ9caoEo7q2E" version="20.8.10" type="github">
  <diagram name="Lapa-1" id="oQQncb_KZhI-nWiiIDaP">
    <mxGraphModel dx="2261" dy="747" grid="1" gridSize="10" guides="1" tooltips="1" connect="1" arrows="1" fold="1" page="1" pageScale="1" pageWidth="827" pageHeight="1169" math="0" shadow="0">
      <root>
        <mxCell id="0" />
        <mxCell id="1" parent="0" />
        <mxCell id="nK07WUBXe59tBbZivKwA-106" value="" style="shape=ext;double=1;rounded=0;whiteSpace=wrap;html=1;labelBackgroundColor=default;fontSize=24;fontColor=#99CCFF;fillColor=#99CCFF;" vertex="1" parent="1">
          <mxGeometry x="-30" y="170" width="790" height="600" as="geometry" />
        </mxCell>
        <mxCell id="nK07WUBXe59tBbZivKwA-104" value="" style="shape=ext;double=1;rounded=1;whiteSpace=wrap;html=1;fontSize=24;fontColor=#99CCFF;labelBackgroundColor=default;fillColor=#99CCFF;" vertex="1" parent="1">
          <mxGeometry x="425" y="1250" width="320" height="370" as="geometry" />
        </mxCell>
        <mxCell id="nK07WUBXe59tBbZivKwA-103" value="" style="shape=ext;double=1;rounded=1;whiteSpace=wrap;html=1;fontSize=24;fillColor=#99CCFF;" vertex="1" parent="1">
          <mxGeometry x="-120" y="1250" width="320" height="370" as="geometry" />
        </mxCell>
        <mxCell id="nK07WUBXe59tBbZivKwA-53" value="" style="shape=actor;whiteSpace=wrap;html=1;" vertex="1" parent="1">
          <mxGeometry x="150" y="440" width="80" height="120" as="geometry" />
        </mxCell>
        <mxCell id="nK07WUBXe59tBbZivKwA-59" value="" style="shape=actor;whiteSpace=wrap;html=1;" vertex="1" parent="1">
          <mxGeometry x="520" y="440" width="80" height="120" as="geometry" />
        </mxCell>
        <mxCell id="nK07WUBXe59tBbZivKwA-60" value="&lt;font style=&quot;font-size: 40px;&quot;&gt;GitHub&lt;/font&gt;" style="text;html=1;align=center;verticalAlign=middle;resizable=0;points=[];autosize=1;strokeColor=none;fillColor=none;fontSize=40;" vertex="1" parent="1">
          <mxGeometry x="285" y="200" width="150" height="60" as="geometry" />
        </mxCell>
        <mxCell id="nK07WUBXe59tBbZivKwA-61" value="Reģistrets lietotais" style="text;html=1;align=center;verticalAlign=middle;resizable=0;points=[];autosize=1;strokeColor=none;fillColor=none;fontSize=24;" vertex="1" parent="1">
          <mxGeometry x="80" y="580" width="220" height="40" as="geometry" />
        </mxCell>
        <mxCell id="nK07WUBXe59tBbZivKwA-62" value="Viesis" style="text;html=1;align=center;verticalAlign=middle;resizable=0;points=[];autosize=1;strokeColor=none;fillColor=none;fontSize=24;" vertex="1" parent="1">
          <mxGeometry x="520" y="580" width="90" height="40" as="geometry" />
        </mxCell>
        <mxCell id="nK07WUBXe59tBbZivKwA-64" value="" style="endArrow=classic;html=1;rounded=0;fontSize=24;" edge="1" parent="1" source="nK07WUBXe59tBbZivKwA-61">
          <mxGeometry width="50" height="50" relative="1" as="geometry">
            <mxPoint x="340" y="760" as="sourcePoint" />
            <mxPoint x="290" y="700" as="targetPoint" />
          </mxGeometry>
        </mxCell>
        <mxCell id="nK07WUBXe59tBbZivKwA-65" value="Grupas biedrs" style="text;html=1;align=center;verticalAlign=middle;resizable=0;points=[];autosize=1;strokeColor=none;fillColor=none;fontSize=24;" vertex="1" parent="1">
          <mxGeometry x="240" y="710" width="170" height="40" as="geometry" />
        </mxCell>
        <mxCell id="nK07WUBXe59tBbZivKwA-66" value="" style="endArrow=classic;html=1;rounded=0;fontSize=24;" edge="1" parent="1" source="nK07WUBXe59tBbZivKwA-61">
          <mxGeometry width="50" height="50" relative="1" as="geometry">
            <mxPoint x="140" y="690" as="sourcePoint" />
            <mxPoint x="100" y="710" as="targetPoint" />
          </mxGeometry>
        </mxCell>
        <mxCell id="nK07WUBXe59tBbZivKwA-67" value="Grupas administrators&lt;br&gt;" style="text;html=1;align=center;verticalAlign=middle;resizable=0;points=[];autosize=1;strokeColor=none;fillColor=none;fontSize=24;" vertex="1" parent="1">
          <mxGeometry x="-30" y="710" width="260" height="40" as="geometry" />
        </mxCell>
        <mxCell id="nK07WUBXe59tBbZivKwA-68" value="1" style="text;html=1;align=center;verticalAlign=middle;resizable=0;points=[];autosize=1;strokeColor=none;fillColor=none;fontSize=24;" vertex="1" parent="1">
          <mxGeometry x="170" y="390" width="40" height="40" as="geometry" />
        </mxCell>
        <mxCell id="nK07WUBXe59tBbZivKwA-69" value="2" style="text;html=1;align=center;verticalAlign=middle;resizable=0;points=[];autosize=1;strokeColor=none;fillColor=none;fontSize=24;" vertex="1" parent="1">
          <mxGeometry x="540" y="390" width="40" height="40" as="geometry" />
        </mxCell>
        <mxCell id="nK07WUBXe59tBbZivKwA-70" value="" style="line;strokeWidth=4;html=1;perimeter=backbonePerimeter;points=[];outlineConnect=0;fontSize=24;" vertex="1" parent="1">
          <mxGeometry x="-20" y="780" width="780" height="10" as="geometry" />
        </mxCell>
        <mxCell id="nK07WUBXe59tBbZivKwA-71" value="" style="line;strokeWidth=4;html=1;perimeter=backbonePerimeter;points=[];outlineConnect=0;fontSize=24;rotation=90;" vertex="1" parent="1">
          <mxGeometry x="300" y="880" width="160" height="10" as="geometry" />
        </mxCell>
        <mxCell id="nK07WUBXe59tBbZivKwA-72" value="1" style="text;html=1;align=center;verticalAlign=middle;resizable=0;points=[];autosize=1;strokeColor=none;fillColor=none;fontSize=24;" vertex="1" parent="1">
          <mxGeometry x="-30" y="790" width="40" height="40" as="geometry" />
        </mxCell>
        <mxCell id="nK07WUBXe59tBbZivKwA-73" value="2" style="text;html=1;align=center;verticalAlign=middle;resizable=0;points=[];autosize=1;strokeColor=none;fillColor=none;fontSize=24;" vertex="1" parent="1">
          <mxGeometry x="414" y="800" width="40" height="40" as="geometry" />
        </mxCell>
        <mxCell id="nK07WUBXe59tBbZivKwA-74" value="1) Var izveidot organizaciju&amp;nbsp;" style="text;html=1;align=center;verticalAlign=middle;resizable=0;points=[];autosize=1;strokeColor=none;fillColor=none;fontSize=24;" vertex="1" parent="1">
          <mxGeometry x="-50" y="840" width="320" height="40" as="geometry" />
        </mxCell>
        <mxCell id="nK07WUBXe59tBbZivKwA-75" value="2) Var rediģet organizaciju un to failus" style="text;html=1;align=center;verticalAlign=middle;resizable=0;points=[];autosize=1;strokeColor=none;fillColor=none;fontSize=24;" vertex="1" parent="1">
          <mxGeometry x="-50" y="900" width="420" height="40" as="geometry" />
        </mxCell>
        <mxCell id="nK07WUBXe59tBbZivKwA-76" value="3) Var lejupieladet datus un failus" style="text;html=1;align=center;verticalAlign=middle;resizable=0;points=[];autosize=1;strokeColor=none;fillColor=none;fontSize=24;" vertex="1" parent="1">
          <mxGeometry x="-50" y="950" width="380" height="40" as="geometry" />
        </mxCell>
        <mxCell id="nK07WUBXe59tBbZivKwA-77" value="4) Pievienoties citam organizacijam" style="text;html=1;align=center;verticalAlign=middle;resizable=0;points=[];autosize=1;strokeColor=none;fillColor=none;fontSize=24;" vertex="1" parent="1">
          <mxGeometry x="-50" y="1000" width="400" height="40" as="geometry" />
        </mxCell>
        <mxCell id="nK07WUBXe59tBbZivKwA-78" value="5) Veido savus repozitorijus" style="text;html=1;align=center;verticalAlign=middle;resizable=0;points=[];autosize=1;strokeColor=none;fillColor=none;fontSize=24;" vertex="1" parent="1">
          <mxGeometry x="-50" y="1050" width="320" height="40" as="geometry" />
        </mxCell>
        <mxCell id="nK07WUBXe59tBbZivKwA-79" value="1)Var apskatit repozitoriju" style="text;html=1;align=center;verticalAlign=middle;resizable=0;points=[];autosize=1;strokeColor=none;fillColor=none;fontSize=24;" vertex="1" parent="1">
          <mxGeometry x="410" y="840" width="290" height="40" as="geometry" />
        </mxCell>
        <mxCell id="nK07WUBXe59tBbZivKwA-81" value="2) Var lejupieladet datus un failus" style="text;html=1;align=center;verticalAlign=middle;resizable=0;points=[];autosize=1;strokeColor=none;fillColor=none;fontSize=24;" vertex="1" parent="1">
          <mxGeometry x="405" y="890" width="380" height="40" as="geometry" />
        </mxCell>
        <mxCell id="nK07WUBXe59tBbZivKwA-82" value="3) Var reģistreties" style="text;html=1;align=center;verticalAlign=middle;resizable=0;points=[];autosize=1;strokeColor=none;fillColor=none;fontSize=24;" vertex="1" parent="1">
          <mxGeometry x="405" y="940" width="210" height="40" as="geometry" />
        </mxCell>
        <mxCell id="nK07WUBXe59tBbZivKwA-83" value="6) Mainit savus personigus datus&amp;nbsp;" style="text;html=1;align=center;verticalAlign=middle;resizable=0;points=[];autosize=1;strokeColor=none;fillColor=none;fontSize=24;" vertex="1" parent="1">
          <mxGeometry x="-50" y="1090" width="380" height="40" as="geometry" />
        </mxCell>
        <mxCell id="nK07WUBXe59tBbZivKwA-84" value="4)Nevar komunicēt ar citiem lietotajiem" style="text;html=1;align=center;verticalAlign=middle;resizable=0;points=[];autosize=1;strokeColor=none;fillColor=none;fontSize=24;" vertex="1" parent="1">
          <mxGeometry x="400" y="980" width="440" height="40" as="geometry" />
        </mxCell>
        <mxCell id="nK07WUBXe59tBbZivKwA-85" value="" style="endArrow=classic;html=1;rounded=0;fontSize=24;" edge="1" parent="1" source="nK07WUBXe59tBbZivKwA-60" target="nK07WUBXe59tBbZivKwA-59">
          <mxGeometry width="50" height="50" relative="1" as="geometry">
            <mxPoint x="390" y="240" as="sourcePoint" />
            <mxPoint x="440" y="190" as="targetPoint" />
          </mxGeometry>
        </mxCell>
        <mxCell id="nK07WUBXe59tBbZivKwA-86" value="" style="endArrow=classic;html=1;rounded=0;fontSize=24;" edge="1" parent="1" source="nK07WUBXe59tBbZivKwA-60" target="nK07WUBXe59tBbZivKwA-53">
          <mxGeometry width="50" height="50" relative="1" as="geometry">
            <mxPoint x="310" y="530" as="sourcePoint" />
            <mxPoint x="360" y="480" as="targetPoint" />
          </mxGeometry>
        </mxCell>
        <mxCell id="nK07WUBXe59tBbZivKwA-89" value="&lt;font style=&quot;font-size: 30px;&quot;&gt;Dati&lt;/font&gt;" style="text;html=1;align=center;verticalAlign=middle;resizable=0;points=[];autosize=1;strokeColor=none;fillColor=none;fontSize=41;" vertex="1" parent="1">
          <mxGeometry x="70" y="1280" width="80" height="60" as="geometry" />
        </mxCell>
        <mxCell id="nK07WUBXe59tBbZivKwA-90" value="&lt;font style=&quot;font-size: 30px;&quot;&gt;Metadati&lt;/font&gt;" style="text;html=1;align=center;verticalAlign=middle;resizable=0;points=[];autosize=1;strokeColor=none;fillColor=none;fontSize=41;" vertex="1" parent="1">
          <mxGeometry x="435" y="1300" width="140" height="60" as="geometry" />
        </mxCell>
        <mxCell id="nK07WUBXe59tBbZivKwA-91" value="5) Nevar izveidot repozitoriju" style="text;html=1;align=center;verticalAlign=middle;resizable=0;points=[];autosize=1;strokeColor=none;fillColor=none;fontSize=24;" vertex="1" parent="1">
          <mxGeometry x="400" y="1020" width="330" height="40" as="geometry" />
        </mxCell>
        <mxCell id="nK07WUBXe59tBbZivKwA-92" value="6) Var apskatit informaciju par GitHub" style="text;html=1;align=center;verticalAlign=middle;resizable=0;points=[];autosize=1;strokeColor=none;fillColor=none;fontSize=24;" vertex="1" parent="1">
          <mxGeometry x="400" y="1070" width="420" height="40" as="geometry" />
        </mxCell>
        <mxCell id="nK07WUBXe59tBbZivKwA-93" value="Faili repozitorijā" style="text;html=1;align=center;verticalAlign=middle;resizable=0;points=[];autosize=1;strokeColor=none;fillColor=none;fontSize=24;" vertex="1" parent="1">
          <mxGeometry x="-5" y="1380" width="190" height="40" as="geometry" />
        </mxCell>
        <mxCell id="nK07WUBXe59tBbZivKwA-94" value="Repozitorijas nosaukums" style="text;html=1;align=center;verticalAlign=middle;resizable=0;points=[];autosize=1;strokeColor=none;fillColor=none;fontSize=24;" vertex="1" parent="1">
          <mxGeometry x="425" y="1400" width="290" height="40" as="geometry" />
        </mxCell>
        <mxCell id="nK07WUBXe59tBbZivKwA-95" value="GitHub logotips" style="text;html=1;align=center;verticalAlign=middle;resizable=0;points=[];autosize=1;strokeColor=none;fillColor=none;fontSize=24;" vertex="1" parent="1">
          <mxGeometry x="435" y="1460" width="190" height="40" as="geometry" />
        </mxCell>
        <mxCell id="nK07WUBXe59tBbZivKwA-96" value="Lietotaja avatars" style="text;html=1;align=center;verticalAlign=middle;resizable=0;points=[];autosize=1;strokeColor=none;fillColor=none;fontSize=24;" vertex="1" parent="1">
          <mxGeometry x="425" y="1510" width="200" height="40" as="geometry" />
        </mxCell>
        <mxCell id="nK07WUBXe59tBbZivKwA-97" value="Informacija par GitHub" style="text;html=1;align=center;verticalAlign=middle;resizable=0;points=[];autosize=1;strokeColor=none;fillColor=none;fontSize=24;" vertex="1" parent="1">
          <mxGeometry x="-70" y="1460" width="260" height="40" as="geometry" />
        </mxCell>
        <mxCell id="nK07WUBXe59tBbZivKwA-98" value="7) Skatit repositorijas rediģešanas vēsturi" style="text;html=1;align=center;verticalAlign=middle;resizable=0;points=[];autosize=1;strokeColor=none;fillColor=none;fontSize=24;" vertex="1" parent="1">
          <mxGeometry x="-50" y="1140" width="460" height="40" as="geometry" />
        </mxCell>
        <mxCell id="nK07WUBXe59tBbZivKwA-100" value="7) Skatit repositorijas rediģešanas vēsturi" style="text;html=1;align=center;verticalAlign=middle;resizable=0;points=[];autosize=1;strokeColor=none;fillColor=none;fontSize=24;" vertex="1" parent="1">
          <mxGeometry x="420" y="1140" width="460" height="40" as="geometry" />
        </mxCell>
        <mxCell id="nK07WUBXe59tBbZivKwA-101" value="Informacija par lietotajiem" style="text;html=1;align=center;verticalAlign=middle;resizable=0;points=[];autosize=1;strokeColor=none;fillColor=none;fontSize=24;" vertex="1" parent="1">
          <mxGeometry x="-110" y="1540" width="300" height="40" as="geometry" />
        </mxCell>
        <mxCell id="nK07WUBXe59tBbZivKwA-108" value="" style="verticalLabelPosition=bottom;verticalAlign=top;html=1;shape=mxgraph.flowchart.collate;fontFamily=Helvetica;fontSize=24;fontColor=default;fillColor=none;gradientColor=none;" vertex="1" parent="1">
          <mxGeometry x="660" y="170" width="100" height="100" as="geometry" />
        </mxCell>
        <mxCell id="nK07WUBXe59tBbZivKwA-109" value="" style="verticalLabelPosition=bottom;verticalAlign=top;html=1;shape=mxgraph.flowchart.collate;fontFamily=Helvetica;fontSize=24;fontColor=default;fillColor=none;gradientColor=none;labelBackgroundColor=default;" vertex="1" parent="1">
          <mxGeometry x="-30" y="170" width="100" height="100" as="geometry" />
        </mxCell>
        <mxCell id="nK07WUBXe59tBbZivKwA-110" value="Informacija par failiem iekša" style="text;html=1;align=center;verticalAlign=middle;resizable=0;points=[];autosize=1;strokeColor=none;fillColor=none;fontSize=24;fontFamily=Helvetica;fontColor=default;" vertex="1" parent="1">
          <mxGeometry x="425" y="1550" width="320" height="40" as="geometry" />
        </mxCell>
      </root>
    </mxGraphModel>
  </diagram>
</mxfile>
